# xmcd
#
# Track frame offsets:
#	150
#	20237
#	36659
#	48727
#	68990
#	86787
#	98303
#	114148
#	141611
#	161392
#	186010
#	197621
#	216859
#	233499
#
# Disc length: 3337 seconds
# Revision: 0
# Processed by: cddbd v1.5.2PL0 Copyright (c) Steve Scherf et al.
# Submitted via: dBpowerAMP V12.0
#
DISCID=c40d070e
DTITLE=Steve Gulley - Family, Friends and Fellowship
DYEAR=2014
DGENRE=Country
TTITLE0=Victory In Jesus
TTITLE1=Pray For Me
TTITLE2=Light At the River
TTITLE3=Scars In His Hands
TTITLE4=The Man I Ought To Be
TTITLE5=Stormy Waters
TTITLE6=House of Gold
TTITLE7=I Must Tell Jesus
TTITLE8=Could You Walk a Mile
TTITLE9=That I Could Still Go Free
TTITLE10=I Never Shall Forget the Day
TTITLE11=What Would You Have Me Do?
TTITLE12=God's Not Dead
TTITLE13=Jesus Loves Me [For Mack]
EXTD=
EXTT0=
EXTT1=
EXTT2=
EXTT3=
EXTT4=
EXTT5=
EXTT6=
EXTT7=
EXTT8=
EXTT9=
EXTT10=
EXTT11=
EXTT12=
EXTT13=
PLAYORDER=
